<svg width="313" height="52" viewBox="0 0 313 52" fill="none" xmlns="http://www.w3.org/2000/svg">
<g filter="url(#filter0_d)">
<path d="M66.6919 11.3926C70.4015 10.4652 74.2256 9.76058 78.1641 9.27881L78.9048 13.5786L71.1001 14.4277L71.3169 20.1909L77.9473 19.9019L77.7666 24.2017L71.3892 24.0029L71.1001 33L67.2158 33.3252L66.6919 11.3926ZM94.478 34.3008C89.5158 33.7949 85.6255 33.0422 82.8071 32.0425C82.2892 31.8498 81.946 30.7417 81.7773 28.7183C81.6328 26.8634 81.7894 25.2555 82.2471 23.8945C82.4398 23.3285 82.6686 23.0153 82.9336 22.9551C84.0658 22.654 85.2581 22.4372 86.5107 22.3047L90.2686 21.8892L90.1963 19.3418C88.8835 19.0889 87.5767 18.8901 86.2759 18.7456C84.9871 18.589 83.7044 18.4084 82.4277 18.2036L83.3853 14.2471L86.4385 14.6987C89.2327 15.1082 91.4549 15.6081 93.105 16.1982C93.8999 16.4873 94.2974 17.0715 94.2974 17.9507L94.3696 27.8511L90.5215 28.2305L90.4131 25.1411L89.3833 25.3398C88.2271 25.5326 87.125 25.7734 86.0771 26.0625C85.9447 26.7008 85.8784 27.2308 85.8784 27.6523C85.8784 28.2666 85.9025 28.7424 85.9507 29.0796C87.6489 29.465 90.2686 29.8564 93.8096 30.2539L95.291 30.4165L94.478 34.3008ZM100.024 32.1509C99.362 31.9341 98.9766 31.4342 98.8682 30.6514C98.6273 28.9893 98.5068 27.4717 98.5068 26.0986C98.5068 24.7135 98.5189 23.6898 98.543 23.0273C98.5791 22.3529 98.6273 21.7025 98.6875 21.0762C98.9043 18.4626 99.1994 16.9329 99.5728 16.4873C99.7655 16.2464 100.079 16.0658 100.512 15.9453C100.958 15.8128 101.548 15.6803 102.283 15.5479C103.029 15.4033 103.812 15.2708 104.631 15.1504C105.462 15.0179 106.275 14.8975 107.07 14.7891C107.877 14.6807 108.564 14.5843 109.13 14.5L109.762 18.5649L108.371 18.7095C105.794 18.9744 104.15 19.1973 103.439 19.3779C103.246 20.1247 103.114 21.1725 103.042 22.5215C102.969 23.8704 102.933 24.8581 102.933 25.4844C102.933 27.0381 102.993 28.2004 103.114 28.9712L110.015 30.2539L108.949 34.1382C107.962 33.9816 107.034 33.813 106.167 33.6323L103.981 33.1807C102.006 32.7471 100.687 32.4038 100.024 32.1509ZM112.996 20.9678C112.996 19.3538 113.165 18.4204 113.502 18.1675C113.839 17.9146 114.219 17.6616 114.64 17.4087C115.062 17.1437 115.525 16.8848 116.031 16.6318C116.537 16.3789 117.061 16.138 117.603 15.9092C118.157 15.6803 118.699 15.4756 119.229 15.2949C120.361 14.9095 121.204 14.7168 121.758 14.7168C122.324 14.7168 122.782 14.7469 123.131 14.8071C123.481 14.8553 123.8 14.9396 124.089 15.0601C124.751 15.3371 125.125 15.7406 125.209 16.2705C125.606 18.7878 125.805 21.7868 125.805 25.2676V26.3335L117.151 26.4419V28.7905C118.091 29.0194 119.211 29.2301 120.512 29.4229L123.619 29.9287C124.414 30.0492 125.227 30.1877 126.058 30.3442L124.992 34.3008C121.68 33.7829 118.163 32.9458 114.441 31.7896C113.586 31.5125 113.147 31.0127 113.123 30.29L112.996 20.9678ZM121.74 22.4492C121.74 21.3171 121.626 20.1247 121.397 18.8721C120.915 18.8721 120.53 18.8962 120.241 18.9443C119.952 18.9925 119.663 19.0588 119.374 19.1431C119.084 19.2274 118.789 19.3237 118.488 19.4321C117.778 19.6851 117.308 19.9019 117.079 20.0825V23.3345L121.74 22.8286V22.4492ZM139.084 16.1621L143.474 15.4214V19.0527L143.366 23.4248L148.551 22.1602C149.285 19.8356 149.653 17.7279 149.653 15.8369C149.653 15.4395 149.629 15.0661 149.581 14.7168C147.545 14.0785 143.528 13.6388 137.53 13.3979L138.217 9.13428C143.36 9.33903 147.816 9.83285 151.586 10.6157C151.911 10.688 152.429 11.1637 153.14 12.043C153.838 12.9102 154.2 13.5184 154.224 13.8677C154.26 14.217 154.278 14.5602 154.278 14.8975V15.9092C154.278 17.4749 153.88 19.4984 153.085 21.9795C152.652 23.3285 152.224 24.1956 151.803 24.5811C151.61 24.7617 151.435 24.8942 151.279 24.9785L149.508 25.5566C151.267 27.4717 152.893 29.5734 154.386 31.8618L150.628 34.4092L146.112 26.46L143.474 26.6045L143.33 33L139.409 33.3252L139.084 16.1621ZM158.054 20.9678C158.054 19.3538 158.222 18.4204 158.56 18.1675C158.897 17.9146 159.276 17.6616 159.698 17.4087C160.119 17.1437 160.583 16.8848 161.089 16.6318C161.595 16.3789 162.119 16.138 162.661 15.9092C163.215 15.6803 163.757 15.4756 164.287 15.2949C165.419 14.9095 166.262 14.7168 166.816 14.7168C167.382 14.7168 167.84 14.7469 168.189 14.8071C168.538 14.8553 168.857 14.9396 169.146 15.0601C169.809 15.3371 170.182 15.7406 170.267 16.2705C170.664 18.7878 170.863 21.7868 170.863 25.2676V26.3335L162.209 26.4419V28.7905C163.148 29.0194 164.269 29.2301 165.569 29.4229L168.677 29.9287C169.472 30.0492 170.285 30.1877 171.116 30.3442L170.05 34.3008C166.738 33.7829 163.221 32.9458 159.499 31.7896C158.644 31.5125 158.204 31.0127 158.18 30.29L158.054 20.9678ZM166.798 22.4492C166.798 21.3171 166.683 20.1247 166.455 18.8721C165.973 18.8721 165.587 18.8962 165.298 18.9443C165.009 18.9925 164.72 19.0588 164.431 19.1431C164.142 19.2274 163.847 19.3237 163.546 19.4321C162.835 19.6851 162.366 19.9019 162.137 20.0825V23.3345L166.798 22.8286V22.4492ZM176.662 32.1509C176 31.9341 175.614 31.4342 175.506 30.6514C175.265 28.9893 175.145 27.4717 175.145 26.0986C175.145 24.7135 175.157 23.6898 175.181 23.0273C175.217 22.3529 175.265 21.7025 175.325 21.0762C175.542 18.4626 175.837 16.9329 176.21 16.4873C176.403 16.2464 176.716 16.0658 177.15 15.9453C177.596 15.8128 178.186 15.6803 178.92 15.5479C179.667 15.4033 180.45 15.2708 181.269 15.1504C182.1 15.0179 182.913 14.8975 183.708 14.7891C184.515 14.6807 185.201 14.5843 185.768 14.5L186.4 18.5649L185.009 18.7095C182.431 18.9744 180.787 19.1973 180.077 19.3779C179.884 20.1247 179.751 21.1725 179.679 22.5215C179.607 23.8704 179.571 24.8581 179.571 25.4844C179.571 27.0381 179.631 28.2004 179.751 28.9712L186.653 30.2539L185.587 34.1382C184.599 33.9816 183.672 33.813 182.805 33.6323L180.619 33.1807C178.643 32.7471 177.325 32.4038 176.662 32.1509ZM194.187 22.3047C194.187 25.2074 194.337 27.7246 194.638 29.8564L198.197 29.6758C198.848 27.0983 199.173 24.5811 199.173 22.124C199.173 21.1364 199.107 20.2572 198.974 19.4863C198.251 19.125 195.698 18.9443 191.314 18.9443H190.393C190.14 18.9443 189.863 18.9564 189.562 18.9805L190.338 14.7891C190.543 14.777 190.73 14.765 190.898 14.7529C191.079 14.7288 191.26 14.7168 191.44 14.7168L191.982 14.6807C192.163 14.6807 192.669 14.6807 193.5 14.6807C195.885 14.6807 198.498 14.9998 201.341 15.6382C202.244 15.867 202.798 16.2705 203.003 16.8486C203.316 17.7399 203.473 19.1912 203.473 21.2026C203.473 24.8761 202.913 28.4292 201.792 31.8618C201.696 32.175 201.582 32.4399 201.449 32.6567C201.329 32.8735 201.112 33.012 200.799 33.0723C200.486 33.1445 200.118 33.2108 199.697 33.271C199.275 33.3312 198.86 33.3854 198.45 33.4336C197.559 33.5179 196.945 33.5601 196.607 33.5601C196.27 33.5601 195.909 33.554 195.523 33.542C195.138 33.542 194.716 33.5299 194.259 33.5059C193.054 33.4456 192.241 33.3372 191.82 33.1807C191.398 33.0361 191.109 32.7832 190.953 32.4219C190.808 32.0605 190.664 31.4824 190.519 30.6875C190.182 28.8327 190.013 26.7189 190.013 24.3462C190.013 23.4429 190.037 22.5456 190.085 21.6543L194.187 20.8413V22.3047ZM212.723 29.188C214.312 29.188 215.559 29.1278 216.462 29.0073L216.39 21.311L220.419 20.5703C220.467 22.8949 220.503 24.8822 220.527 26.5322C220.563 28.1702 220.594 29.5493 220.618 30.6694C220.642 31.7896 220.66 32.6808 220.672 33.3433L220.708 34.8789C220.708 35.2282 220.708 35.457 220.708 35.5654V35.7822C220.708 36.3965 220.25 37.0288 219.335 37.6792C216.541 39.6424 213.692 41.3888 210.79 42.9185L208.585 38.9619C212.524 37.1191 215.264 35.7521 216.806 34.8608L216.535 30.7417L213.951 33H210.952C210.097 33 209.531 32.7109 209.254 32.1328L209.001 31.5908C207.905 28.9531 207.357 25.5807 207.357 21.4736C207.357 19.125 207.532 17.6436 207.881 17.0293C208.013 16.7884 208.405 16.5716 209.055 16.3789C209.718 16.1742 210.543 15.9574 211.53 15.7285C212.53 15.4876 213.542 15.2648 214.565 15.0601C215.589 14.8553 216.613 14.6626 217.637 14.4819L220.618 13.9399L221.503 18.0952L215.812 18.9805C213.716 19.3177 212.416 19.5767 211.91 19.7573C211.789 20.2391 211.729 20.9076 211.729 21.7627C211.729 24.846 212.06 27.3211 212.723 29.188ZM225.532 15.7285L229.38 15.2407L230.012 17.9868L233.192 15.2407H237.636C237.865 15.2407 238.184 15.4154 238.594 15.7646C239.28 16.3307 239.624 16.8366 239.624 17.2822L238.991 33.0361L234.962 33.3613L234.89 19.4141C234.746 19.3659 234.547 19.3418 234.294 19.3418C234.041 19.3418 233.806 19.3538 233.589 19.3779C233.385 19.402 233.162 19.4382 232.921 19.4863C232.355 19.5827 231.891 19.6971 231.53 19.8296L230.193 20.3174L229.705 32.8555L225.857 33.1445L225.532 15.7285ZM249.163 5.81006C249.295 6.27979 249.361 6.80973 249.361 7.3999C249.361 7.97803 249.343 8.47184 249.307 8.88135C249.271 9.27881 249.229 9.65218 249.181 10.0015C249.06 10.7603 248.922 11.2782 248.765 11.5552L244.61 11.3745C244.815 10.3146 244.917 8.6224 244.917 6.29785L249.163 5.81006ZM249.018 14.9155C249.078 16.1561 249.108 17.1979 249.108 18.041C249.108 18.8841 249.09 19.8717 249.054 21.0039L248.639 33L244.791 33.3252L244.429 15.4937L249.018 14.9155ZM253.968 10.9409L258.376 10.0918V15.7646L262.911 14.9155L263.254 19.0166L258.449 19.3779L258.105 29.1519C258.997 29.4289 259.768 29.6457 260.418 29.8022C262.044 30.1877 263.038 30.4285 263.399 30.5249L262.441 34.3008C259.768 33.7106 257.425 33.0301 255.414 32.2593C254.595 31.9582 254.185 31.4162 254.185 30.6333L253.968 10.9409ZM271.637 5.81006C271.77 6.27979 271.836 6.80973 271.836 7.3999C271.836 7.97803 271.818 8.47184 271.782 8.88135C271.746 9.27881 271.703 9.65218 271.655 10.0015C271.535 10.7603 271.396 11.2782 271.24 11.5552L267.084 11.3745C267.289 10.3146 267.392 8.6224 267.392 6.29785L271.637 5.81006ZM271.493 14.9155C271.553 16.1561 271.583 17.1979 271.583 18.041C271.583 18.8841 271.565 19.8717 271.529 21.0039L271.113 33L267.265 33.3252L266.904 15.4937L271.493 14.9155ZM280.688 22.3047C280.688 25.2074 280.839 27.7246 281.14 29.8564L284.699 29.6758C285.35 27.0983 285.675 24.5811 285.675 22.124C285.675 21.1364 285.609 20.2572 285.476 19.4863C284.753 19.125 282.2 18.9443 277.816 18.9443H276.895C276.642 18.9443 276.365 18.9564 276.063 18.9805L276.84 14.7891C277.045 14.777 277.232 14.765 277.4 14.7529C277.581 14.7288 277.762 14.7168 277.942 14.7168L278.484 14.6807C278.665 14.6807 279.171 14.6807 280.002 14.6807C282.387 14.6807 285 14.9998 287.843 15.6382C288.746 15.867 289.3 16.2705 289.505 16.8486C289.818 17.7399 289.975 19.1912 289.975 21.2026C289.975 24.8761 289.415 28.4292 288.294 31.8618C288.198 32.175 288.084 32.4399 287.951 32.6567C287.831 32.8735 287.614 33.012 287.301 33.0723C286.988 33.1445 286.62 33.2108 286.199 33.271C285.777 33.3312 285.362 33.3854 284.952 33.4336C284.061 33.5179 283.447 33.5601 283.109 33.5601C282.772 33.5601 282.411 33.554 282.025 33.542C281.64 33.542 281.218 33.5299 280.761 33.5059C279.556 33.4456 278.743 33.3372 278.322 33.1807C277.9 33.0361 277.611 32.7832 277.455 32.4219C277.31 32.0605 277.166 31.4824 277.021 30.6875C276.684 28.8327 276.515 26.7189 276.515 24.3462C276.515 23.4429 276.539 22.5456 276.587 21.6543L280.688 20.8413V22.3047ZM294.365 15.7285L298.213 15.2407L298.845 17.9868L302.025 15.2407H306.469C306.698 15.2407 307.017 15.4154 307.427 15.7646C308.113 16.3307 308.457 16.8366 308.457 17.2822L307.824 33.0361L303.795 33.3613L303.723 19.4141C303.579 19.3659 303.38 19.3418 303.127 19.3418C302.874 19.3418 302.639 19.3538 302.422 19.3779C302.218 19.402 301.995 19.4382 301.754 19.4863C301.188 19.5827 300.724 19.6971 300.363 19.8296L299.026 20.3174L298.538 32.8555L294.69 33.1445L294.365 15.7285Z" fill="#EA2D5C"/>
</g>
<g filter="url(#filter1_d)">
<path fill-rule="evenodd" clip-rule="evenodd" d="M25.5 1.25C13.7828 1.25 4.25 10.7828 4.25 22.5C4.25 34.2173 13.7828 43.75 25.5 43.75C37.2173 43.75 46.75 34.2173 46.75 22.5C46.75 10.7828 37.2173 1.25 25.5 1.25ZM25.5 5.5C32.3276 5.5 38.2118 9.5545 40.9147 15.377C40.2583 15.0663 39.623 14.7128 39.0129 14.3187L39.0075 14.3154C38.1397 13.768 37.1552 13.1469 35.9104 12.6782C34.4888 12.1364 32.9354 11.875 31.1631 11.875C29.3909 11.875 27.8375 12.1364 26.4159 12.6761C25.1763 13.147 24.1949 13.7648 23.3048 14.3251L23.2879 14.3358L23.2363 14.3681L23.2363 14.3681C22.4549 14.8581 21.7757 15.284 20.944 15.598C19.9963 15.9571 18.9678 16.125 17.7013 16.125C16.4369 16.125 15.4084 15.9571 14.4628 15.598C13.6128 15.2771 12.9157 14.8372 12.1125 14.3273C11.7704 14.1126 11.39 13.8853 11.0075 13.6621C13.9974 8.77675 19.3651 5.5 25.5 5.5ZM25.5 39.5C16.1266 39.5 8.5 31.8734 8.5 22.5C8.5 20.7787 8.76138 19.1213 9.2395 17.5551C9.31577 17.6022 9.3911 17.6474 9.4667 17.6927C9.58908 17.7662 9.71214 17.84 9.84088 17.9227C10.7143 18.4753 11.7024 19.1 12.9561 19.5717C14.3778 20.1136 15.929 20.375 17.7013 20.375C19.4714 20.375 21.0247 20.1136 22.4506 19.5739C23.6902 19.103 24.6716 18.4852 25.5617 17.9249L25.5786 17.9142L25.6307 17.8816C26.4119 17.3917 27.0909 16.9659 27.9225 16.6499C28.8681 16.2929 29.8966 16.125 31.1631 16.125C32.4296 16.125 33.4581 16.2929 34.4038 16.652C35.2516 16.9707 35.9444 17.4085 36.771 17.9313L36.7763 17.9346C37.6441 18.482 38.6287 19.1031 39.8735 19.5739C40.6449 19.8671 41.463 20.0605 42.3236 20.1922C42.4277 20.9509 42.5 21.7159 42.5 22.5C42.5 31.8734 34.8734 39.5 25.5 39.5ZM18.0625 28.875C19.8229 28.875 21.25 27.4479 21.25 25.6875C21.25 23.9271 19.8229 22.5 18.0625 22.5C16.3021 22.5 14.875 23.9271 14.875 25.6875C14.875 27.4479 16.3021 28.875 18.0625 28.875ZM36.125 25.6875C36.125 27.4479 34.6979 28.875 32.9375 28.875C31.1771 28.875 29.75 27.4479 29.75 25.6875C29.75 23.9271 31.1771 22.5 32.9375 22.5C34.6979 22.5 36.125 23.9271 36.125 25.6875Z" fill="#EA2D5C"/>
</g>
<defs>
<filter id="filter0_d" x="62.6919" y="5.81006" width="249.765" height="45.1084" filterUnits="userSpaceOnUse" color-interpolation-filters="sRGB">
<feFlood flood-opacity="0" result="BackgroundImageFix"/>
<feColorMatrix in="SourceAlpha" type="matrix" values="0 0 0 0 0 0 0 0 0 0 0 0 0 0 0 0 0 0 127 0"/>
<feOffset dy="4"/>
<feGaussianBlur stdDeviation="2"/>
<feColorMatrix type="matrix" values="0 0 0 0 0 0 0 0 0 0 0 0 0 0 0 0 0 0 0.25 0"/>
<feBlend mode="normal" in2="BackgroundImageFix" result="effect1_dropShadow"/>
<feBlend mode="normal" in="SourceGraphic" in2="effect1_dropShadow" result="shape"/>
</filter>
<filter id="filter1_d" x="0.25" y="1.25" width="50.5" height="50.5" filterUnits="userSpaceOnUse" color-interpolation-filters="sRGB">
<feFlood flood-opacity="0" result="BackgroundImageFix"/>
<feColorMatrix in="SourceAlpha" type="matrix" values="0 0 0 0 0 0 0 0 0 0 0 0 0 0 0 0 0 0 127 0"/>
<feOffset dy="4"/>
<feGaussianBlur stdDeviation="2"/>
<feColorMatrix type="matrix" values="0 0 0 0 0 0 0 0 0 0 0 0 0 0 0 0 0 0 0.25 0"/>
<feBlend mode="normal" in2="BackgroundImageFix" result="effect1_dropShadow"/>
<feBlend mode="normal" in="SourceGraphic" in2="effect1_dropShadow" result="shape"/>
</filter>
</defs>
</svg>
